<?xml version="1.0" standalone="no"?><!DOCTYPE svg PUBLIC "-//W3C//DTD SVG 1.1//EN" "http://www.w3.org/Graphics/SVG/1.1/DTD/svg11.dtd"><svg t="1636101911854" class="icon" viewBox="0 0 1024 1024" version="1.1" xmlns="http://www.w3.org/2000/svg" p-id="733" xmlns:xlink="http://www.w3.org/1999/xlink" width="200" height="200"><defs><style type="text/css"></style></defs><path d="M721.652 979.68900001l-127.715 0 0-127.71000001L721.652 851.979 721.652 979.688z m-127.714-127.71000001l-127.722 0L466.216 724.27 593.938 724.27 593.938 851.978zM466.216 724.27l-127.712 0 0-127.71L466.216 596.56l0 127.71z m-127.712-127.71L210.79 596.56l0-127.716L338.504 468.844 338.504 596.562zM466.216 468.84599999l-127.71199999 1e-8-1e-8-127.701L466.216 341.145 466.216 468.845zM593.938 341.144l-127.722-1e-8 0-127.718L593.938 213.426 593.938 341.144zM721.652 205.446L721.652 77.74l-127.714 0L593.938 213.425 721.652 213.425z" p-id="734"></path></svg>