<?xml version="1.0" standalone="no"?><!DOCTYPE svg PUBLIC "-//W3C//DTD SVG 1.1//EN" "http://www.w3.org/Graphics/SVG/1.1/DTD/svg11.dtd"><svg t="1636962126582" class="icon" viewBox="0 0 1024 1024" version="1.1" xmlns="http://www.w3.org/2000/svg" p-id="11574" xmlns:xlink="http://www.w3.org/1999/xlink" width="200" height="200"><defs><style type="text/css"></style></defs><path d="M66.639746 264.349667l0 109.511159c0 29.205159 21.901823 43.809785 43.804668 43.809785l335.843978 0L446.288392 220.541929 110.443391 220.541929C88.540546 220.541929 66.639746 242.443751 66.639746 264.349667L66.639746 264.349667M66.639746 264.349667" p-id="11575"></path><path d="M913.554562 220.541929 577.705468 220.541929l0 204.424856 335.850118 0c29.199019 0 43.805692-21.901823 43.805692-43.803645L957.361277 264.349667C957.360254 242.443751 935.456385 220.541929 913.554562 220.541929L913.554562 220.541929M913.554562 220.541929" p-id="11576"></path><path d="M103.147218 914.136823c0 58.403155 51.104935 109.516276 109.509113 109.516276l233.632061 0L446.288392 483.376079 103.147218 483.376079 103.147218 914.136823 103.147218 914.136823M103.147218 914.136823" p-id="11577"></path><path d="M577.705468 1023.653099l233.630015 0c58.409294 0 109.517299-51.112098 109.517299-109.516276l0-438.056917L577.705468 476.079906 577.705468 1023.653099 577.705468 1023.653099M577.705468 1023.653099" p-id="11578"></path><path d="M472.561779 89.12383c-36.33044-29.294187-146.017608-87.608314-153.319921-87.608314-7.302313 0-29.204136-7.302313-36.506449 14.598486-7.296173 21.902846-21.902846 73.008804-7.296173 102.21294 0 29.205159 36.500309 21.901823 43.802622 21.901823l146.018631 0c7.302313 0 21.901823 0 29.204136-14.598486C501.764891 111.031792 482.920708 97.305163 472.561779 89.12383L472.561779 89.12383M472.561779 89.12383" p-id="11579"></path><path d="M550.07313 89.12383 550.07313 89.12383c-10.358929 8.181333-29.204136 21.907962-21.902846 36.506449 7.302313 14.598486 21.901823 14.598486 29.204136 14.598486l146.018631 0c7.302313 0 43.802622 7.30436 43.802622-21.901823 14.606673-29.204136 0-80.311117-7.296173-102.21294-7.302313-21.901823-29.204136-14.598486-36.506449-14.598486S586.40357 59.829644 550.07313 89.12383M550.07313 89.12383" p-id="11580"></path></svg>