<?xml version="1.0" standalone="no"?><!DOCTYPE svg PUBLIC "-//W3C//DTD SVG 1.1//EN" "http://www.w3.org/Graphics/SVG/1.1/DTD/svg11.dtd"><svg t="1635488121627" class="icon" viewBox="0 0 1024 1024" version="1.1" xmlns="http://www.w3.org/2000/svg" p-id="4150" xmlns:xlink="http://www.w3.org/1999/xlink" width="200" height="200"><defs><style type="text/css"></style></defs><path d="M1004 468H20c-8.8 0-16-7.2-16-16v-25.6c0-185.6 151.2-336.8 336.8-336.8h341.6c185.6 0 336.8 151.2 336.8 336.8v25.6c0.8 8.8-6.4 16-15.2 16z m-968-32h952v-9.6c0-168-136.8-304.8-304.8-304.8H340.8c-168 0-304.8 136.8-304.8 304.8v9.6zM1004 683.2H20c-8.8 0-16-7.2-16-16V544c0-8.8 7.2-16 16-16h984c8.8 0 16 7.2 16 16v123.2c0 8.8-7.2 16-16 16z m-968-32h952V560H36v91.2zM944 934.4H80c-41.6 0-76-34.4-76-76V755.2c0-8.8 7.2-16 16-16h984c8.8 0 16 7.2 16 16v103.2c0 42.4-34.4 76-76 76zM36 771.2v87.2c0 24 20 44 44 44h864c24 0 44-20 44-44V771.2H36z" p-id="4151"></path><path d="M267.2 307.2h-1.6c-8.8-2.4-17.6-2.4-26.4-1.6-4.8 0.8-8-2.4-8.8-7.2-0.8-4 2.4-8 7.2-8.8 10.4-0.8 21.6 0 32 2.4 4 0.8 7.2 5.6 5.6 9.6-0.8 3.2-4 5.6-8 5.6zM484.8 245.6c-1.6 0-4-0.8-5.6-1.6-8-7.2-17.6-12.8-28-16.8-4-1.6-6.4-6.4-4.8-10.4 1.6-4 6.4-6.4 10.4-4.8 12 4.8 22.4 11.2 32 20 3.2 3.2 4 8 0.8 11.2 0 1.6-2.4 2.4-4.8 2.4zM731.2 260.8c-2.4 0-4-0.8-5.6-2.4-10.4-10.4-22.4-18.4-35.2-24.8-4-1.6-5.6-6.4-4-10.4 1.6-4 6.4-5.6 10.4-4 15.2 7.2 28 16.8 40 28 3.2 3.2 3.2 8 0 11.2-1.6 1.6-3.2 2.4-5.6 2.4z" p-id="4152"></path></svg>